<svg width="24" height="24" viewBox="0 0 24 24" fill="none" xmlns="http://www.w3.org/2000/svg">
<rect x="0.5" y="0.5" width="23" height="23" rx="11.5" fill="url(#paint0_linear_26_544)"/>
<mask id="path-2-outside-1_26_544" maskUnits="userSpaceOnUse" x="2" y="2" width="20" height="20" fill="black">
<rect fill="white" x="2" y="2" width="20" height="20"/>
<path fill-rule="evenodd" clip-rule="evenodd" d="M12 3C10.8954 3 10 3.89543 10 5V10H5C3.89543 10 3 10.8954 3 12C3 13.1046 3.89543 14 5 14H10V19C10 20.1046 10.8954 21 12 21C13.1046 21 14 20.1046 14 19V14H19C20.1046 14 21 13.1046 21 12C21 10.8954 20.1046 10 19 10H14V5C14 3.89543 13.1046 3 12 3Z"/>
</mask>
<path fill-rule="evenodd" clip-rule="evenodd" d="M12 3C10.8954 3 10 3.89543 10 5V10H5C3.89543 10 3 10.8954 3 12C3 13.1046 3.89543 14 5 14H10V19C10 20.1046 10.8954 21 12 21C13.1046 21 14 20.1046 14 19V14H19C20.1046 14 21 13.1046 21 12C21 10.8954 20.1046 10 19 10H14V5C14 3.89543 13.1046 3 12 3Z" fill="white"/>
<path d="M10 10V10.5H10.5V10H10ZM5 10L5 10.5H5V10ZM10 14H10.5V13.5H10V14ZM14 14V13.5H13.5V14H14ZM14 10H13.5V10.5H14V10ZM10.5 5C10.5 4.17157 11.1716 3.5 12 3.5V2.5C10.6193 2.5 9.5 3.61929 9.5 5H10.5ZM10.5 10V5H9.5V10H10.5ZM5 10.5H10V9.5H5V10.5ZM3.5 12C3.5 11.1716 4.17157 10.5 5 10.5L5 9.5C3.61929 9.5 2.5 10.6193 2.5 12H3.5ZM5 13.5C4.17157 13.5 3.5 12.8284 3.5 12H2.5C2.5 13.3807 3.61929 14.5 5 14.5V13.5ZM10 13.5H5V14.5H10V13.5ZM10.5 19V14H9.5V19H10.5ZM12 20.5C11.1716 20.5 10.5 19.8284 10.5 19H9.5C9.5 20.3807 10.6193 21.5 12 21.5V20.5ZM13.5 19C13.5 19.8284 12.8284 20.5 12 20.5V21.5C13.3807 21.5 14.5 20.3807 14.5 19H13.5ZM13.5 14V19H14.5V14H13.5ZM19 13.5H14V14.5H19V13.5ZM20.5 12C20.5 12.8284 19.8284 13.5 19 13.5V14.5C20.3807 14.5 21.5 13.3807 21.5 12H20.5ZM19 10.5C19.8284 10.5 20.5 11.1716 20.5 12H21.5C21.5 10.6193 20.3807 9.5 19 9.5V10.5ZM14 10.5H19V9.5H14V10.5ZM13.5 5V10H14.5V5H13.5ZM12 3.5C12.8284 3.5 13.5 4.17157 13.5 5H14.5C14.5 3.61929 13.3807 2.5 12 2.5V3.5Z" fill="#D3DCBF" mask="url(#path-2-outside-1_26_544)"/>
<path fill-rule="evenodd" clip-rule="evenodd" d="M22.9898 12C22.9966 11.848 23 11.6952 23 11.5417C23 5.71967 18.0751 1 12 1C5.92487 1 1 5.71967 1 11.5417C1 11.6952 1.00343 11.848 1.01021 12C1.26061 6.39064 6.08511 1.91667 12 1.91667C17.9149 1.91667 22.7394 6.39064 22.9898 12Z" fill="url(#paint1_linear_26_544)"/>
<rect x="0.5" y="0.5" width="23" height="23" rx="11.5" stroke="#C7D0B3"/>
<defs>
<linearGradient id="paint0_linear_26_544" x1="12" y1="0" x2="12" y2="24" gradientUnits="userSpaceOnUse">
<stop stop-color="#99D142"/>
<stop offset="1" stop-color="#8EBC3E"/>
</linearGradient>
<linearGradient id="paint1_linear_26_544" x1="12" y1="1" x2="12" y2="12" gradientUnits="userSpaceOnUse">
<stop stop-color="#D0F09D"/>
<stop offset="1" stop-color="#B5DE77"/>
</linearGradient>
</defs>
</svg>
