<svg width="17" height="14" viewBox="0 0 17 14" fill="none" xmlns="http://www.w3.org/2000/svg">
<path d="M14.8545 13.2627H1.39551L8.125 1.48535L14.8545 13.2627ZM7.9043 5.1582C7.21758 5.15821 6.66113 5.71465 6.66113 6.40137V9.07227C6.66113 9.44471 6.82553 9.77797 7.08496 10.0059C7.08384 10.007 7.08315 10.0086 7.08203 10.0098C6.79889 10.2967 6.66113 10.6614 6.66113 11.0527C6.66116 11.444 6.79888 11.8088 7.08203 12.0957C7.36571 12.3831 7.73034 12.5264 8.125 12.5264C8.51966 12.5264 8.88429 12.3831 9.16797 12.0957C9.45112 11.8088 9.58884 11.444 9.58887 11.0527C9.58887 10.6614 9.45111 10.2967 9.16797 10.0098C9.16669 10.0085 9.16534 10.0071 9.16406 10.0059C9.42381 9.77796 9.58887 9.44497 9.58887 9.07227V6.40137C9.58887 5.71465 9.03242 5.15821 8.3457 5.1582H7.9043Z" fill="#E8E8E8" stroke="#D50807" stroke-width="1.47368"/>
<path d="M8.12501 2.94727L13.5796 12.5262H2.67046L8.12501 2.94727Z" fill="#FCFCFC"/>
<path d="M7.44847 9.9353L7.44847 5.78491H8.63987L8.63987 9.9353H7.44847ZM8.04417 11.9001C7.83638 11.9001 7.65606 11.8235 7.50901 11.6746C7.36215 11.5257 7.28733 11.3436 7.28733 11.1345C7.28741 10.9254 7.36208 10.7433 7.50901 10.5945C7.65604 10.4456 7.83643 10.3689 8.04417 10.3689C8.25191 10.3689 8.4323 10.4456 8.57933 10.5945C8.72626 10.7433 8.80093 10.9254 8.80101 11.1345C8.80101 11.3436 8.7262 11.5257 8.57933 11.6746C8.43228 11.8235 8.25197 11.9001 8.04417 11.9001Z" fill="#333436" stroke="#333436" stroke-width="0.221053"/>
</svg>
