<svg width="24" height="25" viewBox="0 0 24 25" fill="none" xmlns="http://www.w3.org/2000/svg">
<path d="M19 4.5H14.82C14.4 3.34 13.3 2.5 12 2.5C10.7 2.5 9.6 3.34 9.18 4.5H5C3.9 4.5 3 5.4 3 6.5V20.5C3 21.6 3.9 22.5 5 22.5H19C20.1 22.5 21 21.6 21 20.5V6.5C21 5.4 20.1 4.5 19 4.5ZM12 4.25C12.41 4.25 12.75 4.59 12.75 5C12.75 5.41 12.41 5.75 12 5.75C11.59 5.75 11.25 5.41 11.25 5C11.25 4.59 11.59 4.25 12 4.25ZM19 20.5H5V6.5H19V20.5Z" fill="black"/>
<path d="M15.08 12.53L12.96 10.41L7 16.36V18.5H9.1L15.08 12.53Z" fill="black"/>
<path d="M16.85 10.77C17.05 10.57 17.05 10.26 16.85 10.06L15.44 8.65C15.24 8.45 14.93 8.45 14.73 8.65L13.67 9.71L15.79 11.83L16.85 10.77Z" fill="black"/>
</svg>
