<svg width="13" height="14" viewBox="0 0 13 14" fill="none" xmlns="http://www.w3.org/2000/svg">
<path d="M9.42871 1.7998C9.69696 1.7998 9.92665 1.89508 10.1162 2.08594C10.3058 2.27688 10.4004 2.50727 10.4004 2.77539V11.2246C10.4004 11.4926 10.305 11.7222 10.1143 11.9131C10.0311 11.9963 9.93964 12.0605 9.8418 12.1074C9.80934 12.123 9.77626 12.1368 9.74219 12.1484C9.72446 12.1545 9.70664 12.1601 9.68848 12.165C9.64236 12.1777 9.59483 12.1858 9.5459 12.1914C9.50669 12.1959 9.46679 12.2002 9.42578 12.2002H3.57129C3.30304 12.2002 3.07335 12.1049 2.88379 11.9141C2.69421 11.7231 2.59961 11.4927 2.59961 11.2246V2.77539C2.59961 2.50744 2.69505 2.27778 2.88574 2.08691C2.96904 2.00362 3.06021 1.93856 3.1582 1.8916C3.19064 1.87602 3.22377 1.86218 3.25781 1.85059C3.27552 1.84457 3.29338 1.83892 3.31152 1.83398C3.35729 1.82148 3.40458 1.81327 3.45312 1.80762C3.4926 1.80307 3.53291 1.79982 3.57422 1.7998H9.42871ZM3.5752 11.2246H9.4248V2.77539H3.5752V11.2246Z" fill="#D93025"/>
<path d="M8.59961 10H4.59961L5.59961 8.4L6.26628 9.6L7.43294 8L8.59961 10Z" fill="#D93025" stroke="#D93025" stroke-width="0.5"/>
</svg>
