<svg width="13" height="14" viewBox="0 0 13 14" fill="none" xmlns="http://www.w3.org/2000/svg">
<path d="M3.57082 12.2C3.30251 12.2 3.07357 12.1045 2.88398 11.9136C2.6944 11.7226 2.59961 11.4931 2.59961 11.225V2.77499C2.59961 2.50686 2.69508 2.27733 2.88602 2.08639C3.07695 1.89546 3.30648 1.79999 3.57461 1.79999H7.79961L10.3996 4.39999V11.225C10.3996 11.4931 10.3041 11.7226 10.1131 11.9136C9.92204 12.1045 9.69237 12.2 9.42407 12.2H3.57082ZM7.14961 5.04999V2.77499H3.57461V11.225H9.42461V5.04999H7.14961Z" fill="#D93025"/>
<path d="M5.45041 8.85399C5.45041 8.96599 5.42341 9.07099 5.36941 9.16899C5.31741 9.26699 5.23441 9.34599 5.12041 9.40599C5.00841 9.46599 4.86641 9.49599 4.69441 9.49599H4.34341V10.3H3.92341V8.20599H4.69441C4.85641 8.20599 4.99441 8.23399 5.10841 8.28999C5.22241 8.34599 5.30741 8.42299 5.36341 8.52099C5.42141 8.61899 5.45041 8.72999 5.45041 8.85399ZM4.67641 9.15699C4.79241 9.15699 4.87841 9.13099 4.93441 9.07899C4.99041 9.02499 5.01841 8.94999 5.01841 8.85399C5.01841 8.64999 4.90441 8.54799 4.67641 8.54799H4.34341V9.15699H4.67641ZM6.4806 8.20599C6.7006 8.20599 6.8936 8.24899 7.0596 8.33499C7.2276 8.42099 7.3566 8.54399 7.4466 8.70399C7.5386 8.86199 7.5846 9.04599 7.5846 9.25599C7.5846 9.46599 7.5386 9.64999 7.4466 9.80799C7.3566 9.96399 7.2276 10.085 7.0596 10.171C6.8936 10.257 6.7006 10.3 6.4806 10.3H5.7486V8.20599H6.4806ZM6.4656 9.94299C6.6856 9.94299 6.8556 9.88299 6.9756 9.76299C7.0956 9.64299 7.1556 9.47399 7.1556 9.25599C7.1556 9.03799 7.0956 8.86799 6.9756 8.74599C6.8556 8.62199 6.6856 8.55999 6.4656 8.55999H6.1686V9.94299H6.4656ZM9.19199 8.20599V8.54499H8.31899V9.08199H8.98799V9.41499H8.31899V10.3H7.89899V8.20599H9.19199Z" fill="#D93025"/>
</svg>
