<svg width="13" height="14" viewBox="0 0 13 14" fill="none" xmlns="http://www.w3.org/2000/svg">
<path d="M3.57082 12.2C3.30251 12.2 3.07357 12.1045 2.88398 11.9136C2.6944 11.7226 2.59961 11.4931 2.59961 11.225V2.77499C2.59961 2.50686 2.69508 2.27733 2.88602 2.08639C3.07695 1.89546 3.30648 1.79999 3.57461 1.79999H7.79961L10.3996 4.39999V11.225C10.3996 11.4931 10.3041 11.7226 10.1131 11.9136C9.92204 12.1045 9.69237 12.2 9.42407 12.2H3.57082ZM7.14961 5.04999V2.77499H3.57461V11.225H9.42461V5.04999H7.14961Z" fill="#FD7541"/>
<path d="M6.77773 7H5.19922V10.25H5.88291V9.10567H6.65173C7.28543 9.10567 7.79922 8.61135 7.79922 8.00165V7.9828C7.79922 7.44005 7.34185 7 6.77773 7ZM7.08073 8.08745C7.08073 8.36663 6.84529 8.59315 6.55512 8.59315H5.88291V7.51253H6.55512C6.84529 7.51253 7.08073 7.73905 7.08073 8.01823V8.08745Z" fill="#FD7541"/>
</svg>
