<svg width="14" height="16" viewBox="0 0 14 16" fill="none" xmlns="http://www.w3.org/2000/svg">
<path d="M6.62695 13.6797H8.25195V12.9297H9.06445C9.29466 12.9297 9.48763 12.8578 9.64336 12.7141C9.79909 12.5703 9.87695 12.3922 9.87695 12.1797V9.92969C9.87695 9.71719 9.79909 9.53906 9.64336 9.39531C9.48763 9.25156 9.29466 9.17969 9.06445 9.17969H6.62695V8.42969H9.87695V6.92969H8.25195V6.17969H6.62695V6.92969H5.81445C5.58424 6.92969 5.39128 7.00156 5.23555 7.14531C5.07982 7.28906 5.00195 7.46719 5.00195 7.67969V9.92969C5.00195 10.1422 5.07982 10.3203 5.23555 10.4641C5.39128 10.6078 5.58424 10.6797 5.81445 10.6797H8.25195V11.4297H5.00195V12.9297H6.62695V13.6797ZM2.56445 15.9297C2.11758 15.9297 1.73503 15.7828 1.4168 15.4891C1.09857 15.1953 0.939453 14.8422 0.939453 14.4297V2.42969C0.939453 2.01719 1.09857 1.66406 1.4168 1.37031C1.73503 1.07656 2.11758 0.929688 2.56445 0.929688H9.06445L13.9395 5.42969V14.4297C13.9395 14.8422 13.7803 15.1953 13.4621 15.4891C13.1439 15.7828 12.7613 15.9297 12.3145 15.9297H2.56445ZM8.25195 5.42969V2.42969H2.56445V14.4297H12.3145V5.42969H8.25195Z" fill="#1C588E"/>
</svg>
