<svg width="13" height="13" viewBox="0 0 13 13" fill="none" xmlns="http://www.w3.org/2000/svg">
<path d="M3.57082 11.7C3.30251 11.7 3.07357 11.6046 2.88398 11.4136C2.6944 11.2227 2.59961 10.9932 2.59961 10.725V2.27505C2.59961 2.00692 2.69508 1.77739 2.88602 1.58646C3.07695 1.39552 3.30648 1.30005 3.57461 1.30005H7.79961L10.3996 3.90005V10.725C10.3996 10.9932 10.3041 11.2227 10.1131 11.4136C9.92204 11.6046 9.69237 11.7 9.42407 11.7H3.57082ZM7.14961 4.55005V2.27505H3.57461V10.725H9.42461V4.55005H7.14961Z" fill="#4B4B4B"/>
<path d="M4.5 6.84211H8.5V6H4.5V6.84211ZM4.5 8.42105H8.5V7.57895H4.5V8.42105ZM4.5 10H6.98571V9.15789H4.5V10Z" fill="#4B4B4B"/>
</svg>
