<svg width="13" height="14" viewBox="0 0 13 14" fill="none" xmlns="http://www.w3.org/2000/svg">
<path d="M4.55 9.70833L6.5 7.75833L8.45 9.70833L9.20833 8.95L7.25833 7L9.20833 5.05L8.45 4.29167L6.5 6.24167L4.55 4.29167L3.79167 5.05L5.74167 7L3.79167 8.95L4.55 9.70833ZM2.70833 11.875C2.41042 11.875 2.15538 11.7689 1.94323 11.5568C1.73108 11.3446 1.625 11.0896 1.625 10.7917V3.20833C1.625 2.91042 1.73108 2.65538 1.94323 2.44323C2.15538 2.23108 2.41042 2.125 2.70833 2.125H10.2917C10.5896 2.125 10.8446 2.23108 11.0568 2.44323C11.2689 2.65538 11.375 2.91042 11.375 3.20833V10.7917C11.375 11.0896 11.2689 11.3446 11.0568 11.5568C10.8446 11.7689 10.5896 11.875 10.2917 11.875H2.70833ZM2.70833 10.7917H10.2917V3.20833H2.70833V10.7917Z" fill="#737373"/>
</svg>
