<svg width="18" height="18" viewBox="0 0 18 18" fill="none" xmlns="http://www.w3.org/2000/svg">
<path d="M3.75 17.25C3.5375 17.25 3.35938 17.1781 3.21563 17.0344C3.07188 16.8906 3 16.7125 3 16.5C3 16.2875 3.07188 16.1094 3.21563 15.9656C3.35938 15.8219 3.5375 15.75 3.75 15.75H14.25C14.4625 15.75 14.6406 15.8219 14.7844 15.9656C14.9281 16.1094 15 16.2875 15 16.5C15 16.7125 14.9281 16.8906 14.7844 17.0344C14.6406 17.1781 14.4625 17.25 14.25 17.25H3.75ZM3.75 2.25C3.5375 2.25 3.35938 2.17813 3.21563 2.03438C3.07188 1.89062 3 1.7125 3 1.5C3 1.2875 3.07188 1.10938 3.21563 0.965625C3.35938 0.821875 3.5375 0.75 3.75 0.75H14.25C14.4625 0.75 14.6406 0.821875 14.7844 0.965625C14.9281 1.10938 15 1.2875 15 1.5C15 1.7125 14.9281 1.89062 14.7844 2.03438C14.6406 2.17813 14.4625 2.25 14.25 2.25H3.75ZM9 9.75C9.625 9.75 10.1562 9.53125 10.5938 9.09375C11.0312 8.65625 11.25 8.125 11.25 7.5C11.25 6.875 11.0312 6.34375 10.5938 5.90625C10.1562 5.46875 9.625 5.25 9 5.25C8.375 5.25 7.84375 5.46875 7.40625 5.90625C6.96875 6.34375 6.75 6.875 6.75 7.5C6.75 8.125 6.96875 8.65625 7.40625 9.09375C7.84375 9.53125 8.375 9.75 9 9.75ZM3 15C2.5875 15 2.23438 14.8531 1.94063 14.5594C1.64687 14.2656 1.5 13.9125 1.5 13.5V4.5C1.5 4.0875 1.64687 3.73438 1.94063 3.44063C2.23438 3.14688 2.5875 3 3 3H15C15.4125 3 15.7656 3.14688 16.0594 3.44063C16.3531 3.73438 16.5 4.0875 16.5 4.5V13.5C16.5 13.9125 16.3531 14.2656 16.0594 14.5594C15.7656 14.8531 15.4125 15 15 15H3ZM4.3125 13.5C4.875 12.8 5.55625 12.25 6.35625 11.85C7.15625 11.45 8.0375 11.25 9 11.25C9.9625 11.25 10.8438 11.45 11.6438 11.85C12.4438 12.25 13.125 12.8 13.6875 13.5H15V4.5H3V13.5H4.3125ZM6.525 13.5H11.475C11.1125 13.25 10.7219 13.0625 10.3031 12.9375C9.88438 12.8125 9.45 12.75 9 12.75C8.55 12.75 8.11563 12.8125 7.69688 12.9375C7.27813 13.0625 6.8875 13.25 6.525 13.5ZM9 8.25C8.7875 8.25 8.60938 8.17813 8.46563 8.03438C8.32188 7.89063 8.25 7.7125 8.25 7.5C8.25 7.2875 8.32188 7.10938 8.46563 6.96563C8.60938 6.82188 8.7875 6.75 9 6.75C9.2125 6.75 9.39063 6.82188 9.53438 6.96563C9.67813 7.10938 9.75 7.2875 9.75 7.5C9.75 7.7125 9.67813 7.89063 9.53438 8.03438C9.39063 8.17813 9.2125 8.25 9 8.25Z" fill="#13528E"/>
</svg>
