<svg width="13" height="14" viewBox="0 0 13 14" fill="none" xmlns="http://www.w3.org/2000/svg">
<path d="M3.57082 12.2C3.30251 12.2 3.07357 12.1045 2.88398 11.9136C2.6944 11.7226 2.59961 11.4931 2.59961 11.225V2.77499C2.59961 2.50686 2.69508 2.27733 2.88602 2.08639C3.07695 1.89546 3.30648 1.79999 3.57461 1.79999H7.79961L10.3996 4.39999V11.225C10.3996 11.4931 10.3041 11.7226 10.1131 11.9136C9.92204 12.1045 9.69237 12.2 9.42407 12.2H3.57082ZM7.14961 5.04999V2.77499H3.57461V11.225H9.42461V5.04999H7.14961Z" fill="#4B87E4"/>
<path d="M8.07483 7L7.52173 9.3608L6.90889 7H6.12647L5.4943 9.43392L4.92439 7H4.22461L5.0632 10.25H5.90465L6.5175 7.75108L7.1307 10.25H7.93602L8.77461 7H8.07483Z" fill="#4B87E4"/>
</svg>
